<?xml version="1.0" encoding="UTF-8"?>
<svg version="1.1" xmlns="http://www.w3.org/2000/svg" width="465" height="415">
<path d="M0 0 C5.1462673 3.03301286 10.01517087 8.21784175 12.6875 13.5625 C13.79822876 13.57651855 13.79822876 13.57651855 14.93139648 13.59082031 C18.32990652 13.64494601 21.72710202 13.72851112 25.125 13.8125 C26.87200195 13.83376953 26.87200195 13.83376953 28.65429688 13.85546875 C35.89389085 14.05940097 41.36396365 14.99222472 47.6875 18.5625 C48.5228125 18.99691406 49.358125 19.43132813 50.21875 19.87890625 C66.80339601 30.37593418 74.20991177 50.27033723 78.6875 68.5625 C79.367161 68.56309709 80.04682199 68.56369418 80.74707878 68.56430936 C121.03867462 68.60021144 161.33019358 68.65686293 201.62172001 68.74042095 C206.46070366 68.75043828 211.29968765 68.76028243 216.13867188 68.77001953 C217.10201734 68.7719609 218.06536281 68.77390228 219.05790056 68.77590248 C234.65163655 68.80691472 250.24535782 68.82390097 265.83911882 68.83569422 C281.84244468 68.84810979 297.84569339 68.87562039 313.84897053 68.91711307 C323.72206645 68.94223681 333.59503439 68.9556181 343.46816273 68.95392957 C350.24061176 68.95389979 357.01293053 68.96854632 363.78532879 68.99466428 C367.69136307 69.00929679 371.59713021 69.01752481 375.50318718 69.00830269 C379.08386704 68.99999203 382.66401108 69.01023478 386.24461164 69.03483662 C388.14398618 69.04317292 390.04341595 69.03200818 391.94277084 69.02000165 C402.86479755 69.12919442 412.33149702 72.36126135 420.6875 79.5625 C423.10902194 82.37232835 424.92747209 85.30457599 426.6875 88.5625 C427.10128906 89.25472656 427.51507813 89.94695312 427.94140625 90.66015625 C430.71654974 96.14275681 430.98476036 101.36556172 430.96020508 107.38012695 C430.95734151 108.25115964 430.95447794 109.12219233 430.9515276 110.01961994 C430.79453017 121.15385212 429.35282029 132.13538499 427.94921875 143.16796875 C427.66414522 145.47185076 427.37988489 147.77583351 427.09638977 150.07991028 C426.50469743 154.86685826 425.90463207 159.65265492 425.2980957 164.43774414 C424.52346425 170.55293245 423.76820461 176.67032829 423.01886272 182.788661 C422.43643907 187.52941577 421.84489206 192.2689971 421.25049782 197.00826454 C420.96847797 199.26407382 420.68901713 201.52020464 420.41223717 203.77666283 C420.02440109 206.92549422 419.62452643 210.07257225 419.22143555 213.21948242 C419.11066177 214.13753159 418.999888 215.05558075 418.88575745 216.00144958 C418.15369297 221.59283478 417.34077149 227.51615416 414.6875 232.5625 C411.6875 233.5625 411.6875 233.5625 408.11328125 231.91015625 C406.73657832 231.15862277 405.36564591 230.3964433 404 229.625 C402.9471582 229.04588867 402.9471582 229.04588867 401.87304688 228.45507812 C400.13954328 227.49988227 398.41284991 226.53234614 396.6875 225.5625 C396.81374756 224.97549316 396.93999512 224.38848633 397.07006836 223.78369141 C398.44238243 217.19735737 399.43166532 210.61364367 400.25 203.9375 C400.37930908 202.89658203 400.50861816 201.85566406 400.6418457 200.78320312 C401.65404893 192.3850896 402.3270922 184.01344162 402.6875 175.5625 C403.3475 175.5625 404.0075 175.5625 404.6875 175.5625 C404.625625 173.83 404.625625 173.83 404.5625 172.0625 C404.54563479 166.7583901 405.23855167 161.56549574 405.97607422 156.32421875 C406.37561476 153.41846933 406.68908732 150.63521898 406.625 147.69921875 C406.69731759 144.06977949 407.41477144 140.80244379 408.16650391 137.26074219 C409.03429804 132.76643067 409.45414016 128.24192117 409.875 123.6875 C409.96974609 122.76453125 410.06449219 121.8415625 410.16210938 120.890625 C410.24654297 120.00117187 410.33097656 119.11171875 410.41796875 118.1953125 C410.49426514 117.40012207 410.57056152 116.60493164 410.64916992 115.78564453 C410.68824263 113.51942749 410.34052369 111.72361666 409.6875 109.5625 C410.0175 109.5625 410.3475 109.5625 410.6875 109.5625 C410.65822675 103.23947709 409.42521879 99.06201556 405.37109375 94.15234375 C403.02780941 91.93954392 400.80550689 91.24032758 397.6875 90.5625 C396.77452853 90.05626081 396.77452853 90.05626081 395.84311318 89.53979456 C393.19101297 88.3374067 391.23156388 88.30779068 388.32268906 88.30078697 C387.22790544 88.29332148 386.13312183 88.28585599 385.00516295 88.27816427 C383.2016762 88.28106637 383.2016762 88.28106637 381.36175537 88.2840271 C380.08426934 88.2782347 378.8067833 88.2724423 377.49058557 88.26647437 C373.94231591 88.25065275 370.39412539 88.2472425 366.84582472 88.24582577 C363.02034207 88.24213549 359.19490303 88.22698188 355.3694458 88.21321106 C348.74078578 88.1909227 342.11214124 88.1759189 335.48345184 88.16584396 C325.89945129 88.15126675 316.31550465 88.12573263 306.7315357 88.09751268 C291.18269171 88.05202727 275.63383997 88.01541969 260.08496094 87.984375 C244.97947833 87.95419662 229.8740147 87.91984963 214.76855469 87.87988281 C213.83766296 87.87742126 212.90677123 87.87495972 211.94767067 87.87242357 C207.27772279 87.86004911 202.60777514 87.84759255 197.93782759 87.83509517 C159.18774469 87.73150118 120.43763876 87.64230657 81.6875 87.5625 C81.99458012 88.76217659 82.30166023 89.96185318 82.61804581 91.19788361 C83.4632145 94.58202999 84.18669548 97.96116066 84.79876709 101.3963623 C84.99478516 102.48861115 85.19080322 103.58085999 85.39276123 104.70620728 C85.60056213 105.88017059 85.80836304 107.05413391 86.02246094 108.26367188 C86.24720093 109.52041718 86.47194092 110.77716248 86.70349121 112.07199097 C87.19069296 114.79654517 87.67616409 117.5213999 88.16027069 120.24650574 C88.93216677 124.59147887 89.70805673 128.93573328 90.48443604 133.27990723 C91.71887376 140.18975937 92.95073796 147.10006735 94.1814692 154.01058054 C96.36716775 166.28312454 98.55590141 178.55512646 100.74751878 190.82661486 C101.38918295 194.42003691 102.03019832 198.01357199 102.66954803 201.60740662 C104.08602869 209.56892335 105.51440647 217.52814261 106.9551239 225.48532104 C107.60627655 229.09544236 108.24058101 232.7083924 108.87296557 236.32184172 C109.39881152 239.31163331 109.93533071 242.29944654 110.47419786 245.28691578 C110.72972547 246.71647354 110.98080403 248.14683437 111.22722197 249.57799053 C111.56797462 251.55328351 111.92593481 253.52558497 112.284729 255.49768066 C112.483689 256.62316566 112.682649 257.74865067 112.88763809 258.90824127 C113.47645792 261.88158144 113.47645792 261.88158144 116.6875 263.5625 C119.29591879 263.8424092 119.29591879 263.8424092 122.125 263.75 C123.07246094 263.74355469 124.01992187 263.73710937 124.99609375 263.73046875 C127.5718831 263.65882345 127.5718831 263.65882345 129.53735352 263.06738281 C131.99481939 262.49033735 134.25765423 262.3842473 136.78125 262.31640625 C138.30721802 262.26891235 138.30721802 262.26891235 139.86401367 262.22045898 C140.96076416 262.18895752 142.05751465 262.15745605 143.1875 262.125 C154.29435266 261.76031148 165.35474251 261.08558536 176.43359375 260.22290039 C181.86955517 259.8053269 187.23504445 259.44413989 192.6875 259.5625 C193.0175 258.5725 193.3475 257.5825 193.6875 256.5625 C195.68704746 256.51995644 197.68791636 256.52169217 199.6875 256.5625 C200.0175 256.8925 200.3475 257.2225 200.6875 257.5625 C202.03017413 257.64881874 203.37724322 257.66956473 204.72265625 257.66015625 C205.93598633 257.65532227 205.93598633 257.65532227 207.17382812 257.65039062 C208.02396484 257.64201172 208.87410156 257.63363281 209.75 257.625 C210.60400391 257.62048828 211.45800781 257.61597656 212.33789062 257.61132812 C214.45445663 257.59950373 216.57098685 257.58156769 218.6875 257.5625 C218.6875 256.9025 218.6875 256.2425 218.6875 255.5625 C219.44780518 255.56773682 220.20811035 255.57297363 220.99145508 255.57836914 C224.4942947 255.59937926 227.997121 255.61223574 231.5 255.625 C232.69560547 255.63337891 233.89121094 255.64175781 235.12304688 255.65039062 C241.69120361 255.66828751 248.06930391 255.44863942 254.5847168 254.58374023 C255.27863525 254.57673096 255.97255371 254.56972168 256.6875 254.5625 C259.41899663 257.29399663 259.53807854 259.67490684 260.3125 263.4375 C260.57289063 264.67242187 260.83328125 265.90734375 261.1015625 267.1796875 C261.6875 270.5625 261.6875 270.5625 261.6875 274.5625 C260.04950439 274.67377983 260.04950439 274.67377983 258.37841797 274.78730774 C253.10641974 275.14559006 247.83445375 275.50434518 242.5625 275.86328125 C241.58089905 275.9301092 240.5992981 275.99693714 239.58795166 276.06579018 C226.47987264 276.95860874 213.37239357 277.85960174 200.265625 278.77145386 C193.60350087 279.23493983 186.94117636 279.69551593 180.27880859 280.15548515 C175.44353572 280.48949305 170.60838491 280.82512934 165.7734375 281.16381836 C160.95078597 281.50155985 156.12786943 281.83525489 151.30474854 282.16622353 C149.50594103 282.29036097 147.70723036 282.41591147 145.90863037 282.54302025 C136.48790143 283.2080077 127.13951286 283.76699066 117.6875 283.5625 C120.44150227 290.1032554 123.65822992 294.65589429 129.6875 298.5625 C133.43829431 299.64323734 135.47004475 300.06494807 139.0873003 298.57209396 C141.82053125 297.51084722 143.68991417 297.32335621 146.60319519 297.34649658 C147.56639175 297.34927109 148.52958832 297.35204559 149.52197266 297.35490417 C150.56683838 297.36830338 151.6117041 297.38170258 152.68823242 297.39550781 C153.79765701 297.40175674 154.9070816 297.40800568 156.05012512 297.41444397 C159.71456346 297.43791022 163.37866878 297.4762999 167.04296875 297.515625 C169.58693453 297.53671993 172.13090548 297.55719913 174.67488098 297.5770874 C180.00363716 297.6210949 185.33225813 297.67226528 190.66088867 297.72900391 C196.82466307 297.79450899 202.98843204 297.84548526 209.15239829 297.88894582 C215.08291935 297.93117271 221.01330142 297.98453237 226.94368935 298.04268646 C229.46794403 298.06630967 231.99222802 298.08698598 234.51653099 298.10471344 C238.03618011 298.13086411 241.5554637 298.16965408 245.07495117 298.21191406 C246.6513588 298.21986748 246.6513588 298.21986748 248.25961304 298.22798157 C249.21435013 298.24203537 250.16908722 298.25608917 251.15275574 298.27056885 C252.40126202 298.28276144 252.40126202 298.28276144 253.67499065 298.29520035 C255.6875 298.5625 255.6875 298.5625 257.6875 300.5625 C260.80946336 301.02736718 260.80946336 301.02736718 264.3125 301.1875 C266.41625 301.31125 268.52 301.435 270.6875 301.5625 C272.3375 306.1825 273.9875 310.8025 275.6875 315.5625 C272.15738645 319.09261355 261.47801523 317.68502946 256.70269775 317.70129395 C255.73604187 317.69932007 254.76938599 317.69734619 253.7734375 317.6953125 C252.71719177 317.69672241 251.66094604 317.69813232 250.57269287 317.69958496 C247.06926232 317.70173543 243.56592164 317.69536011 240.0625 317.6875 C238.85027771 317.6859491 237.63805542 317.68439819 236.38909912 317.68280029 C215.46763428 317.65193317 194.54674716 317.49029399 173.62677002 317.24310303 C170.43111825 317.20537848 167.23546346 317.17158151 164.03973389 317.14117432 C160.24099736 317.10450255 156.44249384 317.05812291 152.64395905 317.00456238 C151.24573764 316.98623497 149.84747194 316.97096807 148.4491806 316.9591217 C132.64264509 316.81965245 119.62832807 315.04619353 107.7265625 303.859375 C99.55465779 294.65424096 96.85830585 283.09079368 95.21484375 271.2265625 C93.78176429 261.26931412 91.95615606 251.37272825 90.15625 241.4765625 C90.03922226 240.83310253 89.92219452 240.18964256 89.80162048 239.52668381 C89.18450372 236.13492631 88.56611451 232.74340349 87.94677734 229.35205078 C87.4381234 226.56538362 86.93206263 223.77826416 86.42822266 220.99072266 C85.69668238 216.94342422 84.95800084 212.89745982 84.21875 208.8515625 C83.99473511 207.60774811 83.77072021 206.36393372 83.53991699 205.08242798 C83.21948425 203.33933853 83.21948425 203.33933853 82.89257812 201.56103516 C82.70763794 200.54465973 82.52269775 199.5282843 82.33215332 198.48110962 C81.74177478 195.53144548 81.74177478 195.53144548 80.66789246 192.65708923 C79.53914186 189.09421048 79.16113309 185.76997851 78.79614258 182.05053711 C77.66945239 171.53162359 75.81278842 161.163138 73.94921875 150.75390625 C73.58272724 148.69143384 73.21642355 146.62892805 72.85029602 144.56639099 C72.08637187 140.27043882 71.3185144 135.97521191 70.5480957 131.68041992 C69.57066022 126.22840717 68.60573263 120.77426408 67.64410686 115.3194437 C66.89253509 111.06707477 66.13290147 106.8161738 65.37110329 102.56562614 C65.01240461 100.55746028 64.65639342 98.54881212 64.30335045 96.53964424 C58.51628926 60.19146486 58.51628926 60.19146486 37.09521484 31.81542969 C32.53345996 29.44157793 27.73148914 29.67487424 22.6875 29.6875 C21.62660156 29.666875 20.56570312 29.64625 19.47265625 29.625 C16.87681035 29.578228 14.2836779 29.55802824 11.6875 29.5625 C11.42066406 30.47773438 11.15382812 31.39296875 10.87890625 32.3359375 C8.62560874 38.43831042 4.0134638 42.17809644 -1.75 45 C-9.03713848 47.84346113 -14.88628403 47.02372359 -21.9140625 43.953125 C-27.79813345 40.54151383 -31.85769847 35.08906679 -33.875 28.62109375 C-35.48987743 21.02251869 -34.28352793 14.26568364 -30.3125 7.5625 C-22.59141766 -1.17409004 -11.19040225 -4.86249621 0 0 Z " fill="#F5DBAA" transform="translate(34.3125,1.4375)"/>
<path d="M0 0 C3.39482494 1.23082792 6.54635954 2.86540871 9.74609375 4.53125 C10.67486832 5.0005896 11.60364288 5.4699292 12.56056213 5.95349121 C15.52640182 7.45592449 18.48194605 8.97744922 21.4375 10.5 C23.38931373 11.49348566 25.34178247 12.48568558 27.29492188 13.4765625 C31.10285746 15.41013521 34.90623709 17.35225973 38.70654297 19.30078125 C42.70704432 21.34809824 46.72485779 23.35612509 50.75566101 25.34295654 C56.57454053 28.21238754 62.20876788 31.24194816 67.73144531 34.65429688 C71.64164535 36.97382148 75.75333042 38.84066359 79.875 40.75 C89.90446632 45.479008 99.86396958 50.34104446 109.79205322 55.27893066 C111.42678064 56.09103756 113.06264269 56.90086458 114.699646 57.70837402 C117.01631355 58.85172262 119.32891412 60.0029192 121.640625 61.15625 C122.68916153 61.67128082 122.68916153 61.67128082 123.75888062 62.19671631 C130.041521 65.35245901 130.041521 65.35245901 132 68 C132.76824692 71.25027542 133.35854501 73.80332748 132.38671875 77.046875 C130.38323689 79.86868044 128.19586739 80.52897456 125 81.8125 C124.39784668 82.05822754 123.79569336 82.30395508 123.17529297 82.55712891 C121.12310242 83.38806133 119.06265487 84.19540855 117 85 C116.20110352 85.31469238 115.40220703 85.62938477 114.57910156 85.95361328 C109.39569343 87.99449196 104.20182355 90.00655741 99 92 C103.06292342 97.52218778 107.29824636 102.85974244 111.6875 108.125 C116.61701622 114.07295191 121.48289877 120.06033603 126.21508789 126.16674805 C128.23756319 128.77466673 130.28097544 131.32991955 132.421875 133.84375 C135.41953342 137.37290814 137.72268304 140.30067897 139.4375 144.625 C138.44494125 152.28188177 131.39389314 156.66721894 125.625 161.125 C123.42943005 162.76822925 121.21579883 164.38386518 119 166 C118.1440625 166.66128906 117.288125 167.32257813 116.40625 168.00390625 C112.90105454 170.59078852 110.76537672 171.9208231 106.375 172.375 C98.797754 169.28797385 94.7425716 161.33663655 90.19091797 154.84790039 C86.55467014 149.6894234 82.71012029 144.71295264 78.8125 139.75 C74.00501955 133.62564026 69.32841742 127.47635389 65 121 C62.43693979 124.18684577 60.62007507 127.50647205 58.78515625 131.15625 C58.17534926 132.35558015 57.56531628 133.55479543 56.95507812 134.75390625 C56.00646781 136.62853508 55.06033053 138.50432547 54.1184082 140.38232422 C53.2016246 142.20633412 52.27527231 144.02523064 51.34765625 145.84375 C50.80117432 146.92849609 50.25469238 148.01324219 49.69165039 149.13085938 C48.03056885 151.9481534 46.52042271 153.92598204 44 156 C39.76694967 156.69268096 37.8153233 156.55590225 34.25 154.125 C31.71121316 150.59890716 30.83480361 147.59041615 29.75390625 143.43359375 C28.74961399 140.19175915 26.96059536 137.74483351 25 135 C24.25 132.625 24.25 132.625 24 131 C24.66 131 25.32 131 26 131 C24.04963965 124.64412319 22.09168882 118.29062136 20.12841797 111.9387207 C19.46129735 109.77715251 18.79592269 107.61504466 18.13232422 105.45239258 C17.17873205 102.3457347 16.21889834 99.24106531 15.2578125 96.13671875 C14.96190216 95.16788254 14.66599182 94.19904633 14.3611145 93.20085144 C13.9409053 91.84979057 13.9409053 91.84979057 13.51220703 90.47143555 C13.26793976 89.67867722 13.02367249 88.88591888 12.77200317 88.06913757 C11.99411 85.74324503 11.99411 85.74324503 10 83 C9.41981442 80.86129484 8.90368008 78.70508798 8.41796875 76.54296875 C5.42934745 63.93118877 1.25592928 51.64971842 -2.6875 39.3125 C-3.86493742 35.62027397 -5.0409269 31.92760426 -6.21382141 28.2339325 C-6.93884893 25.95146725 -7.66658316 23.66985954 -8.39738464 21.38923645 C-8.72475113 20.36013657 -9.05211761 19.33103668 -9.3894043 18.27075195 C-9.67712204 17.37081009 -9.96483978 16.47086823 -10.26127625 15.5436554 C-11.69945769 10.59154986 -12.48073603 7.71339845 -10 3 C-7.52235693 -0.78166574 -4.14737186 -0.63175048 0 0 Z M10 24 C11.28551664 30.16125762 12.84854012 36.17878205 14.6796875 42.19921875 C14.93372345 43.03789993 15.1877594 43.87658112 15.44949341 44.74067688 C15.9837762 46.49835736 16.52000384 48.25544776 17.05810547 50.01196289 C17.8751848 52.68810528 18.67790442 55.36830249 19.48046875 58.04882812 C20.00432936 59.76589341 20.52903992 61.48269967 21.0546875 63.19921875 C21.40803665 64.39003304 21.40803665 64.39003304 21.76852417 65.60490417 C22.91021829 69.27853953 23.94560139 71.92247621 26.18408203 75.11254883 C28.45550002 78.72428054 28.09799952 80.77961722 28 85 C28.66742613 88.13729191 29.64440543 91.16288234 30.625 94.21484375 C30.89135254 95.07058487 31.15770508 95.92632599 31.43212891 96.80799866 C32.27883321 99.52083466 33.13917175 102.22911672 34 104.9375 C34.57903316 106.7842207 35.15716776 108.6312234 35.734375 110.47851562 C37.14587224 114.98900694 38.56960712 119.4954671 40 124 C41.32 124 42.64 124 44 124 C44.51385254 122.97845825 44.51385254 122.97845825 45.03808594 121.9362793 C46.59862557 118.84812836 48.17409838 115.76783794 49.75 112.6875 C50.28882813 111.61564453 50.82765625 110.54378906 51.3828125 109.43945312 C51.91132813 108.41142578 52.43984375 107.38339844 52.984375 106.32421875 C53.46616211 105.37635498 53.94794922 104.42849121 54.44433594 103.4519043 C56.06886096 100.89146726 57.41412717 99.55335899 60 98 C62.9375 97.5 62.9375 97.5 66 98 C69.71288153 101.34827778 72.82213216 105.11959842 75.875 109.0625 C76.33841797 109.65683838 76.80183594 110.25117676 77.27929688 110.86352539 C87.77066745 124.38402208 97.92120679 138.17047085 108 152 C110.79108116 150.67855892 113.25786389 149.19617639 115.75 147.375 C116.36359375 146.92898438 116.9771875 146.48296875 117.609375 146.0234375 C118.29773438 145.51683594 118.29773438 145.51683594 119 145 C116.18212496 140.65877257 113.16289181 136.54911795 109.9375 132.5 C108.95679181 131.26321066 107.97633003 130.02622589 106.99609375 128.7890625 C106.49835449 128.16161133 106.00061523 127.53416016 105.48779297 126.88769531 C104.0532054 125.06750642 102.63513448 123.23581573 101.22265625 121.3984375 C95.934742 114.54089545 90.44341265 108.02643255 84.5078125 101.71875 C81.89596102 98.88721007 79.44308363 95.97723453 77 93 C77.33 92.34 77.66 91.68 78 91 C78.103125 89.865625 78.20625 88.73125 78.3125 87.5625 C79 84 79 84 80.46875 82.49609375 C84.92237798 79.86377968 89.84698123 78.33033121 94.70898438 76.60546875 C95.49982422 76.31285156 96.29066406 76.02023438 97.10546875 75.71875 C97.82887451 75.46029297 98.55228027 75.20183594 99.29760742 74.93554688 C101.35951456 74.05330629 101.35951456 74.05330629 102 71 C89.5696754 62.97485312 89.5696754 62.97485312 76.07202148 57.57128906 C73.24940866 56.79305011 71.09506788 55.16396138 68.65380859 53.59130859 C63.27983232 50.36890037 57.61052469 47.67801528 51.99926758 44.89672852 C49.80511206 43.80883696 47.61427134 42.71448456 45.42382812 41.61914062 C44.01841796 40.9188918 42.61282532 40.21900906 41.20703125 39.51953125 C40.55797318 39.19555862 39.9089151 38.871586 39.2401886 38.53779602 C35.87466952 36.8725082 32.49434747 35.37110488 29 34 C27.77167043 33.26144741 26.56229381 32.49036168 25.375 31.6875 C20.51004329 28.55603362 15.30058845 26.28977626 10 24 Z " fill="#F1D7A7" transform="translate(294,173)"/>
<path d="M0 0 C6.1736465 4.84882965 9.92646315 11.16115681 12.0078125 18.6796875 C13.07807612 29.88012076 11.94057561 38.92896082 5.0078125 47.9296875 C-1.47369783 54.75743235 -10.11733903 58.42305779 -19.46484375 58.78515625 C-23.23061183 58.62800673 -26.46872185 58.00916011 -29.9921875 56.6796875 C-30.64832031 56.43347656 -31.30445313 56.18726563 -31.98046875 55.93359375 C-39.76772073 52.53139628 -46.116792 46.40614034 -49.2421875 38.453125 C-50.23903448 34.76686793 -50.8506127 31.08557538 -51.3671875 27.3046875 C-51.51293213 26.25087891 -51.51293213 26.25087891 -51.66162109 25.17578125 C-52.09849189 21.32312106 -52.21247931 20.01012521 -49.9921875 16.6796875 C-49.32450747 15.13845944 -48.65796234 13.59673952 -47.9921875 12.0546875 C-44.36761597 4.77356292 -38.38873086 -1.32990153 -30.7421875 -4.3828125 C-20.02820679 -7.15138097 -9.24758266 -6.12879008 0 0 Z M-32.4296875 16.8046875 C-34.71060239 21.00157089 -35.17538801 24.93174082 -34.9921875 29.6796875 C-33.42476058 34.56637141 -30.56710462 38.26275015 -25.9921875 40.6796875 C-20.98453819 42.12242733 -16.46500122 42.2681395 -11.6171875 40.2421875 C-7.33061945 37.75684401 -5.57441657 34.25653092 -3.9921875 29.6796875 C-3.76015625 29.03 -3.528125 28.3803125 -3.2890625 27.7109375 C-2.70048185 23.68380671 -5.08944736 20.12364714 -6.9921875 16.6796875 C-10.28379618 12.53863142 -13.60130507 10.99847182 -18.8046875 10.3046875 C-24.24071518 10.94422017 -28.3328293 13.23306753 -32.4296875 16.8046875 Z " fill="#EED4A5" transform="translate(199.9921875,354.3203125)"/>
<path d="M0 0 C8.30859728 5.59171756 14.26007556 11.9380675 16.66015625 21.89453125 C18.13454084 31.19337268 16.94123016 39.88455191 11.40625 47.71484375 C7.07012002 52.81784387 2.56602557 57.32660048 -3.9453125 59.3828125 C-4.9353125 59.3828125 -5.9253125 59.3828125 -6.9453125 59.3828125 C-7.4403125 60.3728125 -7.4403125 60.3728125 -7.9453125 61.3828125 C-19.16550669 61.35215623 -28.20223052 60.08755758 -37.1015625 52.55859375 C-43.60944088 45.76116993 -46.14357012 38.3872492 -46.5078125 29.0703125 C-46.31410104 21.43033252 -44.20673455 15.23179881 -40.9453125 8.3828125 C-40.64625 7.64546875 -40.3471875 6.908125 -40.0390625 6.1484375 C-37.87987875 2.66289802 -33.61395169 1.83001919 -29.9453125 0.3828125 C-29.336875 0.07988281 -28.7284375 -0.22304688 -28.1015625 -0.53515625 C-19.74715406 -4.4375444 -8.13296643 -4.38873283 0 0 Z M-27.9453125 19.3828125 C-30.45559042 23.71005348 -31.39648353 27.70395335 -30.3828125 32.6328125 C-28.89893647 37.18396886 -26.44196045 40.10625984 -22.8203125 43.1953125 C-18.51199663 44.97483427 -14.53808276 45.04629456 -9.9453125 44.3828125 C-5.52046372 42.17038811 -2.75054593 39.43481634 0.0546875 35.3828125 C1.60886369 30.72028392 1.59917552 26.89527923 -0.0703125 22.2578125 C-2.63852327 18.31988932 -5.68756415 15.51168667 -9.9453125 13.3828125 C-17.47133558 12.27769015 -22.88576708 13.50214754 -27.9453125 19.3828125 Z " fill="#F0D6A6" transform="translate(374.9453125,351.6171875)"/>
<path d="M0 0 C0.66 0.66 1.32 1.32 2 2 C1.9375 4.4375 1.9375 4.4375 1 7 C-3.46838187 10.10304297 -8.54760233 12.32724916 -13.4375 14.6875 C-14.27087891 15.10322266 -15.10425781 15.51894531 -15.96289062 15.94726562 C-20.4367915 18.10110407 -23.90959642 19.68571205 -29 19 C-30 18 -30 18 -30.0625 14.9375 C-30.041875 13.968125 -30.02125 12.99875 -30 12 C-4.60564752 -0.83739046 -4.60564752 -0.83739046 0 0 Z " fill="#E3CB9F" transform="translate(352,155)"/>
<path d="M0 0 C1.21247376 4.23977823 0.7249328 6.73897201 -0.765625 10.8515625 C-1.35923828 12.49898437 -1.35923828 12.49898437 -1.96484375 14.1796875 C-2.60099609 15.88511719 -2.60099609 15.88511719 -3.25 17.625 C-3.65863281 18.7696875 -4.06726563 19.914375 -4.48828125 21.09375 C-8.04110941 30.80405205 -8.04110941 30.80405205 -11 33 C-13.6875 32.6875 -13.6875 32.6875 -16 32 C-17.06003873 28.79337161 -16.948367 27.02631635 -15.78515625 23.875 C-15.50172363 23.08867187 -15.21829102 22.30234375 -14.92626953 21.4921875 C-14.62060059 20.66976562 -14.31493164 19.84734375 -14 19 C-13.41460515 17.33359992 -12.8299741 15.66693134 -12.24609375 14 C-11.64470204 12.3328013 -11.04183146 10.66613534 -10.4375 9 C-10.13392578 8.14277344 -9.83035156 7.28554687 -9.51757812 6.40234375 C-9.22173828 5.58894531 -8.92589844 4.77554688 -8.62109375 3.9375 C-8.3573999 3.20402344 -8.09370605 2.47054687 -7.82202148 1.71484375 C-6.04301617 -1.99639276 -3.42081536 -0.81019311 0 0 Z " fill="#DCC59A" transform="translate(275,210)"/>
<path d="M0 0 C2.5 -0.3125 2.5 -0.3125 5 0 C5.66 0.66 6.32 1.32 7 2 C6.70766157 8.43144554 4.3306896 14.25748131 2.125 20.25 C1.59712891 21.73886719 1.59712891 21.73886719 1.05859375 23.2578125 C0.71183594 24.20914063 0.36507813 25.16046875 0.0078125 26.140625 C-0.30526855 27.00204102 -0.61834961 27.86345703 -0.94091797 28.75097656 C-2.02878638 31.06112958 -2.9949296 32.42945895 -5 34 C-7.13745922 33.74853421 -8.45925779 33.54074221 -10 32 C-9.60486587 25.05395794 -7.9432401 19.13203303 -5.5625 12.625 C-5.24990234 11.73683594 -4.93730469 10.84867188 -4.61523438 9.93359375 C-3.31026424 6.28629878 -2.16179814 3.24269721 0 0 Z " fill="#DEC79C" transform="translate(315,118)"/>
<path d="M0 0 C0.70125 0.391875 1.4025 0.78375 2.125 1.1875 C2.5 3.4375 2.5 3.4375 2.125 6.1875 C-2.7566599 10.00204338 -8.32137871 12.44871154 -13.9375 15 C-14.82244141 15.41958984 -15.70738281 15.83917969 -16.61914062 16.27148438 C-17.47830078 16.66271484 -18.33746094 17.05394531 -19.22265625 17.45703125 C-19.99617432 17.81385986 -20.76969238 18.17068848 -21.56665039 18.53833008 C-24.34211789 19.3188661 -26.12498786 18.94452069 -28.875 18.1875 C-29.205 16.5375 -29.535 14.8875 -29.875 13.1875 C-25.85722184 9.62397356 -21.83295349 7.64772684 -16.9375 5.625 C-15.5527471 5.0418781 -14.16862175 4.45726349 -12.78515625 3.87109375 C-12.12290039 3.59354248 -11.46064453 3.31599121 -10.77832031 3.0300293 C-8.99763177 2.24178453 -7.27059729 1.33533781 -5.55078125 0.421875 C-2.875 -0.8125 -2.875 -0.8125 0 0 Z " fill="#DEC69B" transform="translate(255.875,186.8125)"/>
<path d="M0 0 C6.85790205 0.28247651 12.95841484 2.43832958 19.375 4.75 C20.37144531 5.08515625 21.36789063 5.4203125 22.39453125 5.765625 C23.34457031 6.1059375 24.29460937 6.44625 25.2734375 6.796875 C26.13372559 7.09948242 26.99401367 7.40208984 27.88037109 7.71386719 C30 9 30 9 31.42041016 11.45019531 C31.6116748 12.29163086 31.80293945 13.13306641 32 14 C31.34 14.99 30.68 15.98 30 17 C25.30976546 16.43393721 20.65499974 15.81462495 16 15 C16 14.34 16 13.68 16 13 C15.35933594 12.81824219 14.71867187 12.63648438 14.05859375 12.44921875 C3.08646299 9.26059655 3.08646299 9.26059655 -1 7 C-2.0625 4.4375 -2.0625 4.4375 -2 2 C-1.34 1.34 -0.68 0.68 0 0 Z " fill="#DDC59B" transform="translate(230,149)"/>
<path d="M0 0 C2.625 0.3125 2.625 0.3125 4.13183594 2.01782227 C6.84973426 6.19465783 8.79836296 10.73008803 10.875 15.25 C11.34679687 16.23935547 11.81859375 17.22871094 12.3046875 18.24804688 C12.74554688 19.20646484 13.18640625 20.16488281 13.640625 21.15234375 C14.04571289 22.02238037 14.45080078 22.89241699 14.86816406 23.78881836 C15.74867153 26.72488471 15.51537648 28.4073776 14.625 31.3125 C13.625 32.3125 13.625 32.3125 11.0625 32.375 C10.258125 32.354375 9.45375 32.33375 8.625 32.3125 C5.93471624 26.99070082 3.26899111 21.65744195 0.625 16.3125 C0.15578125 15.37019531 -0.3134375 14.42789063 -0.796875 13.45703125 C-2.78901542 9.26343131 -3.96960655 6.06935238 -3.375 1.3125 C-2.375 0.3125 -2.375 0.3125 0 0 Z " fill="#DEC79C" transform="translate(268.375,115.6875)"/>
<path d="" fill="#303030" transform="translate(0,0)"/>
<path d="" fill="#303030" transform="translate(0,0)"/>
<path d="" fill="#303030" transform="translate(0,0)"/>
</svg>
